Coordinates
version=1
nRows=11
nColumns=40
inDegrees=yes

Units are S.I. units (second, meters, Newtons, ...)
If the header above contains a line with 'inDegrees', this indicates whether rotational values are in degrees (yes) or radians (no).

endheader
time	pelvis_tilt	pelvis_list	pelvis_rotation	pelvis_tx	pelvis_ty	pelvis_tz	hip_flexion_r	hip_adduction_r	hip_rotation_r	knee_angle_r	knee_angle_r_beta	ankle_angle_r	subtalar_angle_r	mtp_angle_r	hip_flexion_l	hip_adduction_l	hip_rotation_l	knee_angle_l	knee_angle_l_beta	ankle_angle_l	subtalar_angle_l	mtp_angle_l	lumbar_extension	lumbar_bending	lumbar_rotation	arm_flex_r	arm_add_r	arm_rot_r	elbow_flex_r	pro_sup_r	wrist_flex_r	wrist_dev_r	arm_flex_l	arm_add_l	arm_rot_l	elbow_flex_l	pro_sup_l	wrist_flex_l	wrist_dev_l
      7.80000000	      2.84082765	     -1.13578198	      5.62949288	      0.06802351	      1.31779619	     -0.00868256	     41.99817178	     -4.46683795	     -8.61713433	     94.87213242	      1.65583108	     -0.94781588	    -15.57776099	      0.00000000	     40.89076062	     -7.56226585	     -2.13692783	     58.32575820	      1.01797652	      0.97498552	    -20.94594814	      0.00000000	    -58.07384168	      0.19639316	     -2.60026739	     56.81938905	     11.33930588	    -37.71979484	     36.04185533	     72.87325778	      0.00000000	      0.00000000	     60.58181943	     10.94432994	    -39.58985971	     32.20860274	      3.15199168	      0.00000000	      0.00000000
      7.81700000	      2.60730069	     -1.90310606	      4.97041419	      0.06781786	      1.31732813	     -0.00804113	     45.16064327	     -3.86640332	     -8.20056852	     98.61822707	      1.72121276	     -0.86388963	    -14.72352634	      0.00000000	     38.07882279	     -8.25736056	     -2.46219997	     54.27072173	      0.94720278	     -0.66085099	    -21.02960166	      0.00000000	    -57.77282976	      0.23627514	     -1.74969262	     56.95402256	     11.42922333	    -37.53296642	     35.87175465	     72.91782527	      0.00000000	      0.00000000	     60.39440497	     11.00015270	    -40.12602146	     32.49676855	      3.29244877	      0.00000000	      0.00000000
      7.83300000	      2.24167287	     -2.44551847	      4.12905322	      0.06751148	      1.31668087	     -0.00725440	     48.60366501	     -3.34206803	     -7.54550329	    102.06267172	      1.78132966	     -0.98929736	    -13.72682292	      0.00000000	     35.33739139	     -8.79940187	     -3.10910320	     50.67053889	      0.88436774	     -1.97156350	    -21.20987384	      0.00000000	    -57.36062084	     -0.00018461	     -0.99281703	     57.06067012	     11.53455823	    -37.35549151	     35.71954375	     73.00516697	      0.00000000	      0.00000000	     60.20689117	     11.10579775	    -40.75277250	     32.82300379	      3.27260470	      0.00000000	      0.00000000
      7.85000000	      1.82870974	     -2.77003324	      3.29991459	      0.06738269	      1.31578195	     -0.00637208	     51.92161066	     -2.87434939	     -6.82233362	    104.88497411	      1.83058813	     -0.65121308	    -12.89674408	      0.00000000	     32.89144863	     -9.20050434	     -4.07164527	     47.81912064	      0.83460110	     -3.00974330	    -21.35583157	      0.00000000	    -56.88454775	     -0.38289862	     -0.39494186	     57.07494800	     11.58242909	    -37.15274730	     35.56856587	     73.10512393	      0.00000000	      0.00000000	     60.01768239	     11.19320282	    -41.31385274	     33.05660602	      3.30330495	      0.00000000	      0.00000000
      7.86700000	      1.43058348	     -2.99511225	      2.57939017	      0.06708501	      1.31503237	     -0.00565913	     54.97584346	     -2.42090340	     -6.22611370	    106.95609615	      1.86673603	      0.36864713	    -12.61356300	      0.00000000	     30.82094522	     -9.49719028	     -5.02363587	     45.84039718	      0.80006586	     -3.83453104	    -21.22616723	      0.00000000	    -56.47256532	     -0.70310903	      0.12200430	     57.14519161	     11.58930570	    -36.96797568	     35.48744359	     73.17977856	      0.00000000	      0.00000000	     59.91193072	     11.21610113	    -41.62015618	     33.19479818	      3.38572342	      0.00000000	      0.00000000
      7.88300000	      1.03508206	     -2.99603865	      1.83937987	      0.06707570	      1.31428982	     -0.00501476	     57.85453539	     -2.01851972	     -5.52144740	    108.42478475	      1.89236948	      1.60016372	    -12.59336612	      0.00000000	     28.98245384	     -9.67505297	     -6.33236564	     44.67946551	      0.77980378	     -4.29105157	    -20.92194269	      0.00000000	    -56.05466186	     -1.17454375	      0.51078166	     57.13671180	     11.55060530	    -36.76934623	     35.41480462	     73.24624447	      0.00000000	      0.00000000	     59.77084083	     11.23812781	    -41.85075706	     33.25539181	      3.42648643	      0.00000000	      0.00000000
      7.90000000	      0.75100866	     -3.01474597	      1.45977302	      0.06708334	      1.31364742	     -0.00471429	     60.27092588	     -1.81497778	     -5.15585166	    109.12608359	      1.90460946	      2.93991045	    -12.93381888	      0.00000000	     27.53405827	     -9.76693196	     -7.40549835	     44.31885153	      0.77350988	     -4.59084562	    -20.40068817	      0.00000000	    -55.78266357	     -1.40933788	      0.72715981	     57.16757259	     11.50510162	    -36.62200482	     35.32577308	     73.25082217	      0.00000000	      0.00000000	     59.70542337	     11.27355052	    -41.97759576	     33.32722434	      3.51899614	      0.00000000	      0.00000000
      7.91700000	      0.50475793	     -2.94988636	      1.18395345	      0.06719063	      1.31305123	     -0.00460958	     62.40334300	     -1.58387941	     -4.71286861	    109.00264302	      1.90245501	      3.86029919	    -13.44176691	      0.00000000	     26.45746782	     -9.82157526	     -8.58425896	     44.75631537	      0.78114506	     -4.47397965	    -19.64096701	      0.00000000	    -55.60343584	     -1.68983320	      0.84230340	     57.17966682	     11.40653270	    -36.43845199	     35.30253214	     73.23825848	      0.00000000	      0.00000000	     59.70130588	     11.37901472	    -41.95917076	     33.39250593	      3.54026196	      0.00000000	      0.00000000
      7.93300000	      0.35114185	     -2.91667183	      1.18067151	      0.06735421	      1.31263352	     -0.00483657	     64.07358560	     -1.45934222	     -4.47584209	    108.10886013	      1.88685556	      4.65841880	    -14.37670140	      0.00000000	     25.75326218	     -9.87709581	     -9.55132569	     46.02800490	      0.80334023	     -4.16538600	    -18.83390944	      0.00000000	    -55.55412573	     -1.77939885	      0.85139007	     57.21491932	     11.27724011	    -36.29269511	     35.27623358	     73.18474508	      0.00000000	      0.00000000	     59.73830755	     11.50954878	    -41.81624401	     33.45418483	      3.53855323	      0.00000000	      0.00000000
      7.95000000	      0.49331822	     -2.74640030	      1.49630441	      0.06759618	      1.31278931	     -0.00557029	     64.94459396	     -1.74292342	     -4.27914283	    106.57956625	      1.86016435	      5.18773118	    -14.78358055	      0.00000000	     25.14906232	     -9.68490951	    -10.24689841	     47.85446984	      0.83521806	     -4.01151564	    -18.62326655	      0.00000000	    -55.81227664	     -1.73507451	      0.59019675	     57.24605626	     11.20186185	    -36.24036248	     35.32678831	     73.10574598	      0.00000000	      0.00000000	     59.82871755	     11.60448261	    -41.70825073	     33.49557588	      3.78419523	      0.00000000	      0.00000000
      7.96700000	      0.49547255	     -2.71513434	      1.86463033	      0.06780089	      1.31261201	     -0.00612349	     65.44856365	     -1.92198643	     -4.43154040	    104.37922680	      1.82176118	      5.77532054	    -15.86375096	      0.00000000	     25.11214309	     -9.76039421	    -10.91226647	     50.41175915	      0.87985118	     -3.21370443	    -18.35260115	      0.00000000	    -55.85458018	     -1.62117395	      0.40812075	     57.22740703	     11.14130845	    -36.17430539	     35.31789276	     73.00540492	      0.00000000	      0.00000000	     59.91801192	     11.62027239	    -41.58014447	     33.46686806	      3.80882186	      0.00000000	      0.00000000
